<?xml version="1.0" encoding="UTF-8"?>
<svg width="37.5" height="37.500015" version="1.1" viewBox="0 0 9.9218747 9.9218788" xml:space="preserve" xmlns="http://www.w3.org/2000/svg" xmlns:xlink="http://www.w3.org/1999/xlink"><defs><style>
      .cls-1 {
        fill: #f9a819;
        fill-rule: evenodd;
      }
    </style><style type="text/css">

.str5 {stroke:#1F1A17;stroke-width:76;stroke-linecap:round;stroke-linejoin:round}
.str2 {stroke:#72706F;stroke-width:76;stroke-linecap:round;stroke-linejoin:round}
.str8 {stroke:#C2C1C1;stroke-width:76}
.str9 {stroke:#D82B40;stroke-width:76}
.str6 {stroke:#1F1A17;stroke-width:353;stroke-linecap:round;stroke-linejoin:round}
.str4 {stroke:#72706F;stroke-width:353;stroke-linecap:round;stroke-linejoin:round}
.str1 {stroke:#131516;stroke-width:353;stroke-linecap:round;stroke-linejoin:round}
.str7 {stroke:#1F1A17;stroke-width:353;stroke-linecap:round;stroke-linejoin:round}
.str3 {stroke:#72706F;stroke-width:353;stroke-linecap:round;stroke-linejoin:round}
.str0 {stroke:#131516;stroke-width:353;stroke-linecap:round;stroke-linejoin:round}
.str11 {stroke:#1F1A17;stroke-width:706}
.str10 {stroke:#D82B40;stroke-width:1058}
.fil3 {fill:none}
.fil4 {fill:#FFFFFF}
.fil0 {fill:#9DBDDD}
.fil1 {fill:#EEDDB3}
.fil2 {fill:#F6EAD9}
.fil6 {fill:#D82B40}
.fil5 {fill:#ECECEB}

</style><style>
      .cls-1 {
        fill: #f9a819;
        fill-rule: evenodd;
      }
    </style></defs><g transform="translate(-2477.1613,-63.757866)"><path d="m2484.9611 73.514381-3.3349-3.362417q-0.2756 0.110245-0.5581 0.165365t-0.5994 0.05512q-1.3781 0-2.3427-0.964625-0.9646-0.964626-0.9646-2.342666 0-0.49609 0.1378-0.943951 0.1378-0.447865 0.3858-0.847495l2.0119 2.011936 0.9922-0.992191-2.0119-2.011936q0.3996-0.248045 0.8475-0.38585t0.944-0.137805q1.378 0 2.3426 0.964631 0.9646 0.964625 0.9646 2.342661 0 0.31695-0.055 0.59945-0.055 0.282495-0.1653 0.558105l3.3624 3.334852q0.1653 0.165365 0.1653 0.39963t-0.1653 0.39963l-1.1576 1.157556q-0.1653 0.165365-0.3996 0.165365t-0.3996-0.165365zm0.3996-1.171336 0.3721-0.37207-3.5278-3.527777q0.248-0.27561 0.3583-0.64079 0.1102-0.36518 0.1102-0.73725 0-0.826821-0.5305-1.440046-0.5306-0.61323-1.3161-0.73725l1.0198 1.019745q0.1654 0.165365 0.1654 0.38585t-0.1654 0.385851l-1.7639 1.76389q-0.1654 0.165366-0.3859 0.165366-0.2204 0-0.3858-0.165366l-1.0198-1.01975q0.1241 0.785485 0.7373 1.316031 0.6132 0.530545 1.4401 0.530545 0.3582 0 0.7165-0.110245t0.6477-0.34451z" style="fill:#ffffff;stroke-width:.0066146"/></g><style type="text/css">
	.st0{fill:#3C0C12;}
</style><style>.st0{fill:#df2626}.st1{fill:#010101}</style><style type="text/css">
	.st0{fill:#3C0C12;}
</style><style>.st0{fill:#df2626}.st1{fill:#010101}</style><style type="text/css">
	.st0{fill:#3C0C12;}
</style><style type="text/css">
	.st0{fill:#3C0C12;}
</style><style>.st0{fill:#df2626}.st1{fill:#010101}</style></svg>
