<?xml version="1.0" encoding="UTF-8"?>
<svg width="37.5" height="30.000015" version="1.1" viewBox="0 0 9.9218747 7.9375038" xml:space="preserve" xmlns="http://www.w3.org/2000/svg" xmlns:xlink="http://www.w3.org/1999/xlink"><defs><style>
      .cls-1 {
        fill: #f9a819;
        fill-rule: evenodd;
      }
    </style><style type="text/css">

.str5 {stroke:#1F1A17;stroke-width:76;stroke-linecap:round;stroke-linejoin:round}
.str2 {stroke:#72706F;stroke-width:76;stroke-linecap:round;stroke-linejoin:round}
.str8 {stroke:#C2C1C1;stroke-width:76}
.str9 {stroke:#D82B40;stroke-width:76}
.str6 {stroke:#1F1A17;stroke-width:353;stroke-linecap:round;stroke-linejoin:round}
.str4 {stroke:#72706F;stroke-width:353;stroke-linecap:round;stroke-linejoin:round}
.str1 {stroke:#131516;stroke-width:353;stroke-linecap:round;stroke-linejoin:round}
.str7 {stroke:#1F1A17;stroke-width:353;stroke-linecap:round;stroke-linejoin:round}
.str3 {stroke:#72706F;stroke-width:353;stroke-linecap:round;stroke-linejoin:round}
.str0 {stroke:#131516;stroke-width:353;stroke-linecap:round;stroke-linejoin:round}
.str11 {stroke:#1F1A17;stroke-width:706}
.str10 {stroke:#D82B40;stroke-width:1058}
.fil3 {fill:none}
.fil4 {fill:#FFFFFF}
.fil0 {fill:#9DBDDD}
.fil1 {fill:#EEDDB3}
.fil2 {fill:#F6EAD9}
.fil6 {fill:#D82B40}
.fil5 {fill:#ECECEB}

</style><style>
      .cls-1 {
        fill: #f9a819;
        fill-rule: evenodd;
      }
    </style></defs><g transform="translate(-2375.7375,-64.750053)"><path d="m2376.7299 67.962263q0 0.880566 0.5891 1.513086t1.4697 0.706935l-0.769-0.768945 0.6945-0.69453 1.9844 1.984371-1.9844 1.984375-0.6945-0.69453 0.7938-0.79375q-1.3023-0.07442-2.1891-1.004591-0.8867-0.930175-0.8867-2.220016 0-1.351855 0.9364-2.288231 0.9363-0.93638 2.2882-0.93638h1.7363v0.99219h-1.7363q-0.9302 0-1.5813 0.64492-0.6511 0.644921-0.6511 1.575096zm4.9609 3.237012v-0.992186h3.9687v0.992186zm0-2.728517v-0.992185h3.9687v0.992185zm0-2.728511v-0.99219h3.9687v0.99219z" style="fill:#ffffff;stroke-width:.00661455"/></g><style type="text/css">
	.st0{fill:#3C0C12;}
</style><style>.st0{fill:#df2626}.st1{fill:#010101}</style><style type="text/css">
	.st0{fill:#3C0C12;}
</style><style>.st0{fill:#df2626}.st1{fill:#010101}</style><style type="text/css">
	.st0{fill:#3C0C12;}
</style><style type="text/css">
	.st0{fill:#3C0C12;}
</style><style>.st0{fill:#df2626}.st1{fill:#010101}</style></svg>
