<?xml version="1.0" encoding="UTF-8"?>
<svg width="150" height="150" version="1.1" viewBox="0 0 39.687499 39.687499" xml:space="preserve" xmlns="http://www.w3.org/2000/svg" xmlns:xlink="http://www.w3.org/1999/xlink"><defs><style>
      .cls-1 {
        fill: #f9a819;
        fill-rule: evenodd;
      }
    </style><style type="text/css">

.str5 {stroke:#1F1A17;stroke-width:76;stroke-linecap:round;stroke-linejoin:round}
.str2 {stroke:#72706F;stroke-width:76;stroke-linecap:round;stroke-linejoin:round}
.str8 {stroke:#C2C1C1;stroke-width:76}
.str9 {stroke:#D82B40;stroke-width:76}
.str6 {stroke:#1F1A17;stroke-width:353;stroke-linecap:round;stroke-linejoin:round}
.str4 {stroke:#72706F;stroke-width:353;stroke-linecap:round;stroke-linejoin:round}
.str1 {stroke:#131516;stroke-width:353;stroke-linecap:round;stroke-linejoin:round}
.str7 {stroke:#1F1A17;stroke-width:353;stroke-linecap:round;stroke-linejoin:round}
.str3 {stroke:#72706F;stroke-width:353;stroke-linecap:round;stroke-linejoin:round}
.str0 {stroke:#131516;stroke-width:353;stroke-linecap:round;stroke-linejoin:round}
.str11 {stroke:#1F1A17;stroke-width:706}
.str10 {stroke:#D82B40;stroke-width:1058}
.fil3 {fill:none}
.fil4 {fill:#FFFFFF}
.fil0 {fill:#9DBDDD}
.fil1 {fill:#EEDDB3}
.fil2 {fill:#F6EAD9}
.fil6 {fill:#D82B40}
.fil5 {fill:#ECECEB}

</style><style>
      .cls-1 {
        fill: #f9a819;
        fill-rule: evenodd;
      }
    </style></defs><g transform="translate(-2354.7915,-279.13541)"><g transform="translate(0,29.104165)"><g transform="matrix(.04839939 0 0 .04839939 2350.9197 292.6227)" style="fill:#f79210;stroke-width:.136667"><path d="m468-240q-96-5-162-74t-66-166q0-100 70-170t170-70q97 0 166 66t74 162l-84-25q-13-54-56-88.5t-100-34.5q-66 0-113 47t-47 113q0 57 34.5 100t88.5 56zm48 158q-9 2-18 2h-18q-83 0-156-31.5t-127-85.5-85.5-127-31.5-156 31.5-156 85.5-127 127-85.5 156-31.5 156 31.5 127 85.5 85.5 127 31.5 156v18q0 9-2 18l-78-24v-12q0-134-93-227t-227-93-227 93-93 227 93 227 227 93h12zm305 22-171-171-50 151-120-400 400 120-151 50 171 171z" style="fill:#f79210;stroke-width:.136667"/></g></g></g><style type="text/css">
	.st0{fill:#3C0C12;}
</style><style>.st0{fill:#df2626}.st1{fill:#010101}</style><style type="text/css">
	.st0{fill:#3C0C12;}
</style><style>.st0{fill:#df2626}.st1{fill:#010101}</style><style type="text/css">
	.st0{fill:#3C0C12;}
</style><style type="text/css">
	.st0{fill:#3C0C12;}
</style><style>.st0{fill:#df2626}.st1{fill:#010101}</style></svg>
