<?xml version="1.0" encoding="UTF-8"?>
<svg width="400.00049" height="95.606445" version="1.1" viewBox="0 0 105.83346 25.295871" xml:space="preserve" xmlns="http://www.w3.org/2000/svg" xmlns:xlink="http://www.w3.org/1999/xlink"><defs><style>
      .cls-1 {
        fill: #f9a819;
        fill-rule: evenodd;
      }
    </style><style type="text/css">

.str5 {stroke:#1F1A17;stroke-width:76;stroke-linecap:round;stroke-linejoin:round}
.str2 {stroke:#72706F;stroke-width:76;stroke-linecap:round;stroke-linejoin:round}
.str8 {stroke:#C2C1C1;stroke-width:76}
.str9 {stroke:#D82B40;stroke-width:76}
.str6 {stroke:#1F1A17;stroke-width:353;stroke-linecap:round;stroke-linejoin:round}
.str4 {stroke:#72706F;stroke-width:353;stroke-linecap:round;stroke-linejoin:round}
.str1 {stroke:#131516;stroke-width:353;stroke-linecap:round;stroke-linejoin:round}
.str7 {stroke:#1F1A17;stroke-width:353;stroke-linecap:round;stroke-linejoin:round}
.str3 {stroke:#72706F;stroke-width:353;stroke-linecap:round;stroke-linejoin:round}
.str0 {stroke:#131516;stroke-width:353;stroke-linecap:round;stroke-linejoin:round}
.str11 {stroke:#1F1A17;stroke-width:706}
.str10 {stroke:#D82B40;stroke-width:1058}
.fil3 {fill:none}
.fil4 {fill:#FFFFFF}
.fil0 {fill:#9DBDDD}
.fil1 {fill:#EEDDB3}
.fil2 {fill:#F6EAD9}
.fil6 {fill:#D82B40}
.fil5 {fill:#ECECEB}

</style><style>
      .cls-1 {
        fill: #f9a819;
        fill-rule: evenodd;
      }
    </style><clipPath id="j"><path transform="translate(-529.32232,-298.2941)" d="M 0,595.276 H 841.89 V 0 H 0 Z"/></clipPath><clipPath id="c"><path transform="translate(-449.80371,-400.32831)" d="M 0,595.276 H 841.89 V 0 H 0 Z"/></clipPath><clipPath id="b"><path transform="translate(-385.29591,-298.2941)" d="M 0,595.276 H 841.89 V 0 H 0 Z"/></clipPath><clipPath id="a"><path transform="translate(-385.29591,-377.81271)" d="M 0,595.276 H 841.89 V 0 H 0 Z"/></clipPath><clipPath id="t"><path transform="translate(-609.19822,-298.2941)" d="M 0,595.276 H 841.89 V 0 H 0 Z"/></clipPath><clipPath id="s"><path transform="translate(-613.12991,-425.34491)" d="M 0,595.276 H 841.89 V 0 H 0 Z"/></clipPath><clipPath id="r"><path transform="translate(-465.35061,-328.85081)" d="M 0,595.276 H 841.89 V 0 H 0 Z"/></clipPath><clipPath id="q"><path transform="translate(-497.87211,-345.11201)" d="M 0,595.276 H 841.89 V 0 H 0 Z"/></clipPath><clipPath id="p"><path transform="translate(-500.19532,-369.05681)" d="M 0,595.276 H 841.89 V 0 H 0 Z"/></clipPath><clipPath id="o"><path transform="translate(-443.01371,-354.04661)" d="M 0,595.276 H 841.89 V 0 H 0 Z"/></clipPath><clipPath id="n"><path transform="translate(-445.87301,-343.68231)" d="M 0,595.276 H 841.89 V 0 H 0 Z"/></clipPath><clipPath id="m"><path transform="translate(-721.06052,-297.93721)" d="M 0,595.276 H 841.89 V 0 H 0 Z"/></clipPath><clipPath id="l"><path transform="translate(-672.45512,-378.70621)" d="M 0,595.276 H 841.89 V 0 H 0 Z"/></clipPath><clipPath id="k"><path transform="translate(-170.3281,-317.95041)" d="M 0,595.276 H 841.89 V 0 H 0 Z"/></clipPath><clipPath id="i"><path transform="translate(-294.34131,-358.69261)" d="M 0,595.276 H 841.89 V 0 H 0 Z"/></clipPath><clipPath id="h"><path transform="translate(-162.2646,-431.89861)" d="M 0,595.276 H 841.89 V 0 H 0 Z"/></clipPath><clipPath id="g"><path transform="translate(-185.9082,-426.84491)" d="M 0,595.276 H 841.89 V 0 H 0 Z"/></clipPath><clipPath id="f"><path transform="translate(-219.32421,-439.34931)" d="M 0,595.276 H 841.89 V 0 H 0 Z"/></clipPath><clipPath id="e"><path transform="translate(-264.43021,-428.35811)" d="M 0,595.276 H 841.89 V 0 H 0 Z"/></clipPath><clipPath id="d"><path transform="translate(-300.92771,-417.55101)" d="M 0,595.276 H 841.89 V 0 H 0 Z"/></clipPath></defs><g transform="translate(-1852.0833,-2566.4582)"><g transform="matrix(.49494559 0 0 .49494559 1820.2142 2515.648)" style="stroke-width:.732171"><path transform="matrix(.35277775 0 0 -.35277775 209.37875 152.52364)" d="m0 0h-16.082c-1.43 0-2.681 1.251-2.681 2.681v46.638c0 28.591 23.231 52 52 52h8.041c1.43 0 2.681-1.251 2.681-2.68v-16.082c0-1.43-1.251-2.681-2.681-2.681h-8.219c-16.797 0-30.378-13.581-30.378-30.378v-46.46c0-1.787-1.073-3.038-2.681-3.038" clip-path="url(#j)" style="fill:#ffffff"/><path transform="matrix(.35277775 0 0 -.35277775 181.32636 116.52825)" d="m0 0c-28.59 0-52-23.23-52-52s23.231-52 52-52c28.591 0 52 23.23 52 52s-23.23 52-52 52" clip-path="url(#c)" style="fill:#ffffff"/><path transform="matrix(.35277775 0 0 -.35277775 158.56944 152.52364)" d="m0 0h-8.041c-16.083 0-29.127 13.045-29.127 29.127v107.216c0 1.429 1.251 2.68 2.68 2.68h16.083c1.429 0 2.68-1.251 2.68-2.68v-107.216c0-4.11 3.395-7.505 7.505-7.505h8.041c1.43 0 2.681-1.251 2.681-2.68v-16.083c0.178-1.608-1.072-2.859-2.502-2.859" clip-path="url(#b)" style="fill:#ffffff"/><path transform="matrix(.35277775 0 0 -.35277775 158.56944 124.47125)" d="m0 0h-26.804v21.622h26.804c1.43 0 2.68-1.251 2.68-2.681v-16.082c0-1.608-1.25-2.859-2.68-2.859" clip-path="url(#a)" style="fill:#ffffff"/><path transform="matrix(.35277775 0 0 -.35277775 237.55719 152.52364)" d="m0 0h-16.082c-1.43 0-2.681 1.251-2.681 2.681v96.136c0 1.43 1.251 2.681 2.681 2.681h16.082c1.43 0 2.681-1.251 2.681-2.681v-95.958c0.178-1.608-1.073-2.859-2.681-2.859" clip-path="url(#t)" style="fill:#ffffff"/><path transform="matrix(.35277775 0 0 -.35277775 238.9442 107.70294)" d="m0 0c0-6.611-5.361-11.972-11.973-11.972-6.611 0-11.972 5.361-11.972 11.972 0 6.612 5.361 11.973 11.972 11.973 6.612 0 11.973-5.361 11.973-11.973" clip-path="url(#s)" style="fill:#ffffff"/><path transform="matrix(.35277775 0 0 -.35277775 186.81096 141.74392)" d="m0 0c-12.509-10.722-30.914-12.151-44.316-2.68-9.828 13.223-9.292 31.807 1.787 44.494 0.536 0.536 1.072 1.251 1.787 1.787l10.721 10.722 4.467 4.467c0.536 0.536 1.073 0.715 1.787 0.715 0.715 0 1.43-0.179 1.788-0.715 3.395-3.395 3.395-9.113 0-12.508l-10.722-10.722c-8.041-8.22-9.292-20.728-3.395-30.02 1.25-2.323 3.037-4.289 5.182-6.076 8.935-7.148 21.801-6.433 30.914 0.536" clip-path="url(#r)" style="fill:#f79210"/><path transform="matrix(.35277775 0 0 -.35277775 198.28382 136.00733)" d="m0 0-22.157-22.158c-12.866-12.866-33.416-15.01-47.711-4.11-2.86 2.144-5.183 4.646-6.969 7.327 13.401-9.65 31.807-8.042 44.316 2.68 0.893 0.536 1.608 1.251 2.322 2.144l22.158 22.158c2.145 2.145 5.719 2.145 7.862 0l0.179-0.179c2.145-2.144 2.145-5.718 0-7.862" clip-path="url(#q)" style="fill:#db2340"/><path transform="matrix(.35277775 0 0 -.35277775 199.10339 127.56013)" d="m0 0-35.56-35.56c-6.968-6.969-17.869-8.577-25.91-3.216-3.395 2.144-5.718 5.182-7.327 8.398 7.149-4.646 16.441-4.11 23.231 0.894 0.357 0.178 0.714 0.536 1.072 0.714 0.357 0.179 0.715 0.537 1.072 0.894l35.738 35.738c1.073 1.073 2.502 1.609 3.932 1.609s2.858-0.536 3.931-1.609c1.966-2.322 1.966-5.718-0.179-7.862" clip-path="url(#p)" style="fill:#db2340"/><path transform="matrix(.35277775 0 0 -.35277775 178.93099 132.8554)" d="m0 0c-1.966-1.966-2.859-4.825-2.681-7.505 0.179-2.681 1.43-5.182 3.932-6.969 3.038-2.145 7.147-2.145 10.364-0.179-6.79-5.003-16.082-5.718-23.23-0.893-3.573 7.505-2.323 16.976 3.931 23.23l0.537 0.536 35.38 35.56c1.073 1.072 2.502 1.608 3.932 1.608s2.859-0.536 3.931-1.608c2.144-2.145 2.144-5.718 0-7.863z" clip-path="url(#o)" style="fill:#f79210"/><path transform="matrix(.35277775 0 0 -.35277775 179.93969 136.51169)" d="m0 0c2.145-2.144 5.718-2.144 7.862 0l45.031 45.031c2.144 2.144 2.144 5.718 0 7.862-2.144 2.145-5.718 2.145-7.863 0l-45.03-45.03c-2.145-2.323-2.145-5.718 0-7.863" clip-path="url(#n)" style="fill:#db2340"/><path transform="matrix(.35277775 0 0 -.35277775 277.01972 152.64955)" d="m0 0h-14.296c-1.966 0-3.395 1.608-3.395 3.395v46.996h21.086v-46.996c0-1.787-1.609-3.395-3.395-3.395" clip-path="url(#m)" style="fill:#ffffff"/><path transform="matrix(.35277775 0 0 -.35277775 259.87282 124.15604)" d="m0 0c-16.797 0-30.377-13.581-30.377-30.378s13.58-30.378 30.377-30.378c16.798 0 30.378 13.581 30.378 30.378s-13.58 30.378-30.378 30.378m0-82.377c-28.591 0-51.999 23.23-51.999 51.999 0 28.591 23.229 52 51.999 52 28.592 0 52-23.23 52-52 0-28.591-23.229-51.999-52-51.999" clip-path="url(#l)" style="fill:#ffffff"/><path transform="matrix(.35277775 0 0 -.35277775 82.733578 145.58934)" d="m0 0c-16.797 0-30.378 13.581-30.378 30.378s13.581 30.378 30.378 30.378 30.378-13.581 30.378-30.378-13.581-30.378-30.378-30.378m52 30.378c0 28.591-23.23 52-52 52-28.591 0-52-23.231-52-52 0-28.77 23.23-52 52-52 11.437 0 22.158 3.753 30.735 10.186v-5.182c0-1.966 1.609-3.395 3.395-3.395h14.296c1.966 0 3.395 1.608 3.395 3.395l0.179 46.996" clip-path="url(#k)" style="fill:#ffffff"/><path transform="matrix(.35277775 0 0 -.35277775 126.48268 131.21639)" d="m0 0c-11.258 2.323-30.378 5.361-29.842 12.33 0.536 6.79 13.045 10.721 23.23 9.292 12.508-1.787 19.299-9.649 22.694-13.938 1.072-1.43 3.038-1.608 4.467-0.715l13.224 8.577c1.608 1.073 2.144 3.217 1.072 4.825-9.649 14.474-27.161 21.8-38.955 22.694-12.687 1.072-46.996-0.179-48.783-32.879-1.43-26.09 35.023-30.736 46.639-33.237 19.298-4.289 23.051-9.114 14.831-14.474-10.9-7.148-26.089-3.932-33.415 0.178-4.825 2.502-8.399 7.148-10.365 10.007-1.072 1.429-3.037 1.965-4.646 0.893l-13.044-8.398c-1.608-1.072-1.966-3.217-0.894-4.825 10.186-15.368 24.303-22.694 43.601-24.123 20.55-1.608 45.21 11.972 46.818 33.594 1.43 22.694-23.766 27.519-36.632 30.199" clip-path="url(#i)" style="fill:#ffffff"/><path transform="matrix(.35277775 0 0 -.35277775 79.888955 105.39094)" d="m0 0c-0.714 1.499-1.745 2.662-3.098 3.485-1.352 0.824-2.926 1.236-4.722 1.236-1.794 0-3.411-0.412-4.849-1.236-1.438-0.823-2.571-2.004-3.393-3.541-0.825-1.536-1.235-3.314-1.235-5.329 0-2.016 0.41-3.787 1.235-5.311 0.822-1.525 1.955-2.699 3.393-3.522 1.438-0.825 3.055-1.236 4.849-1.236 2.509 0 4.574 0.749 6.197 2.249s2.57 3.529 2.841 6.086h-10.254v2.729h13.831v-2.581c-0.197-2.115-0.86-4.051-1.991-5.81-1.133-1.758-2.619-3.147-4.464-4.167-1.844-1.021-3.897-1.531-6.16-1.531-2.384 0-4.559 0.559-6.528 1.679-1.967 1.118-3.522 2.673-4.665 4.665-1.144 1.992-1.715 4.241-1.715 6.75 0 2.508 0.571 4.764 1.715 6.768 1.143 2.003 2.698 3.565 4.665 4.684 1.969 1.119 4.144 1.679 6.528 1.679 2.731 0 5.146-0.678 7.249-2.029 2.101-1.352 3.634-3.259 4.592-5.717z" clip-path="url(#h)" style="fill:#ffffff"/><path transform="matrix(.35277775 0 0 -.35277775 88.229891 107.17378)" d="m0 0h4.942c1.82 0 3.184 0.449 4.094 1.347 0.909 0.897 1.364 2.096 1.364 3.596 0 1.524-0.448 2.705-1.345 3.541-0.899 0.836-2.269 1.254-4.113 1.254h-4.942zm10.179-13.204-6.122 10.513h-4.057v-10.513h-3.357v25.708h8.299c1.942 0 3.584-0.332 4.924-0.996 1.341-0.664 2.342-1.562 3.006-2.693 0.664-1.13 0.996-2.422 0.996-3.872 0-1.77-0.512-3.332-1.531-4.685-1.021-1.352-2.551-2.249-4.592-2.692l6.454-10.77z" clip-path="url(#g)" style="fill:#ffffff"/><path transform="matrix(.35277775 0 0 -.35277775 100.01831 102.7625)" d="m0 0v-16.266c0-2.287 0.558-3.984 1.677-5.09 1.118-1.106 2.675-1.66 4.666-1.66 1.967 0 3.51 0.554 4.63 1.66 1.118 1.106 1.677 2.803 1.677 5.09v16.266h3.357v-16.229c0-2.139-0.431-3.941-1.291-5.403-0.862-1.464-2.023-2.552-3.485-3.264-1.464-0.714-3.106-1.07-4.924-1.07-1.821 0-3.463 0.356-4.925 1.07-1.463 0.712-2.618 1.8-3.467 3.264-0.849 1.462-1.273 3.264-1.273 5.403v16.229z" clip-path="url(#f)" style="fill:#ffffff"/><path transform="matrix(.35277775 0 0 -.35277775 115.93071 106.63995)" d="m0 0c0.886 0.812 1.328 1.967 1.328 3.466 0 3.173-1.82 4.759-5.459 4.759h-4.942v-9.442h4.942c1.869 0 3.246 0.405 4.131 1.217m2.563-1.863c-1.462-1.414-3.694-2.121-6.694-2.121h-4.942v-10.733h-3.357v25.708h8.299c2.902 0 5.108-0.701 6.621-2.103 1.513-1.401 2.269-3.209 2.269-5.422 0-2.139-0.733-3.915-2.196-5.329" clip-path="url(#e)" style="fill:#ffffff"/><path transform="matrix(.35277775 0 0 -.35277775 128.80621 110.45246)" d="m0 0c1.438 0.836 2.569 2.029 3.393 3.578 0.823 1.549 1.235 3.343 1.235 5.384 0 2.066-0.412 3.867-1.235 5.404-0.824 1.537-1.95 2.723-3.375 3.559-1.426 0.836-3.049 1.254-4.869 1.254-1.818 0-3.441-0.418-4.867-1.254-1.428-0.836-2.553-2.022-3.375-3.559-0.825-1.537-1.236-3.338-1.236-5.404 0-2.041 0.411-3.835 1.236-5.384 0.822-1.549 1.954-2.742 3.392-3.578 1.438-0.837 3.056-1.254 4.85-1.254 1.795 0 3.413 0.417 4.851 1.254m-11.379-2.49c-1.967 1.119-3.522 2.68-4.665 4.684-1.144 2.005-1.715 4.26-1.715 6.768s0.571 4.765 1.715 6.769c1.143 2.003 2.698 3.565 4.665 4.684 1.968 1.118 4.144 1.678 6.528 1.678 2.41 0 4.598-0.56 6.566-1.678 1.967-1.119 3.516-2.674 4.647-4.666s1.697-4.254 1.697-6.787c0-2.532-0.566-4.794-1.697-6.786s-2.68-3.547-4.647-4.666c-1.968-1.119-4.156-1.678-6.566-1.678-2.384 0-4.56 0.559-6.528 1.678" clip-path="url(#d)" style="fill:#ffffff"/></g></g><style type="text/css">
	.st0{fill:#3C0C12;}
</style><style>.st0{fill:#df2626}.st1{fill:#010101}</style><style type="text/css">
	.st0{fill:#3C0C12;}
</style><style>.st0{fill:#df2626}.st1{fill:#010101}</style><style type="text/css">
	.st0{fill:#3C0C12;}
</style><style type="text/css">
	.st0{fill:#3C0C12;}
</style><style>.st0{fill:#df2626}.st1{fill:#010101}</style></svg>
