<?xml version="1.0" encoding="UTF-8" standalone="no"?>
<svg
   width="250"
   height="49"
   version="1.1"
   viewBox="0 0 66 13"
   xml:space="preserve"
   id="svg56"
   sodipodi:docname="logo_chocosul.svg"
   inkscape:version="1.4.4 (dcaf3e7d9e, 2026-05-05)"
   xmlns:inkscape="http://www.inkscape.org/namespaces/inkscape"
   xmlns:sodipodi="http://sodipodi.sourceforge.net/DTD/sodipodi-0.dtd"
   xmlns="http://www.w3.org/2000/svg"
   xmlns:svg="http://www.w3.org/2000/svg"><sodipodi:namedview
     id="namedview56"
     pagecolor="#ffffff"
     bordercolor="#000000"
     borderopacity="0.25"
     inkscape:showpageshadow="2"
     inkscape:pageopacity="0.0"
     inkscape:pagecheckerboard="0"
     inkscape:deskcolor="#d1d1d1"
     inkscape:zoom="2.0916219"
     inkscape:cx="138.17029"
     inkscape:cy="103.26914"
     inkscape:window-width="1536"
     inkscape:window-height="836"
     inkscape:window-x="0"
     inkscape:window-y="0"
     inkscape:window-maximized="1"
     inkscape:current-layer="svg56" /><defs
     id="defs25"><style
       id="style1">
      .cls-1 {
        fill: #f9a819;
        fill-rule: evenodd;
      }
    </style><clipPath
       id="o"><path
         transform="translate(-991 -618)"
         d="m0 1080h1920v-1080h-1920z"
         id="path1" /></clipPath><clipPath
       id="d"><path
         transform="translate(-1218 -537)"
         d="m0 1080h1920v-1080h-1920z"
         id="path2" /></clipPath><clipPath
       id="b"><path
         transform="translate(-1386 -567)"
         d="m0 1080h1920v-1080h-1920z"
         id="path3" /></clipPath><clipPath
       id="a"><path
         transform="translate(-1547 -571)"
         d="m0 1080h1920v-1080h-1920z"
         id="path4" /></clipPath><clipPath
       id="y"><path
         transform="translate(-1801 -520)"
         d="m0 1080h1920v-1080h-1920z"
         id="path5" /></clipPath><clipPath
       id="x"><path
         transform="translate(-1693 -553)"
         d="m0 1080h1920v-1080h-1920z"
         id="path6" /></clipPath><clipPath
       id="w"><path
         transform="translate(-896 -523)"
         d="m0 1080h1920v-1080h-1920z"
         id="path7" /></clipPath><clipPath
       id="v"><path
         transform="translate(-1e3 -409)"
         d="m0 1080h1920v-1080h-1920z"
         id="path8" /></clipPath><clipPath
       id="u"><path
         d="m0 1080h1920v-1080h-1920z"
         id="path9" /></clipPath><clipPath
       id="t"><path
         transform="translate(-1091 -411)"
         d="m0 1080h1920v-1080h-1920z"
         id="path10" /></clipPath><clipPath
       id="s"><path
         transform="translate(-1173 -373)"
         d="m0 1080h1920v-1080h-1920z"
         id="path11" /></clipPath><clipPath
       id="r"><path
         transform="translate(-1254 -420)"
         d="m0 1080h1920v-1080h-1920z"
         id="path12" /></clipPath><clipPath
       id="q"><path
         d="m0 1080h1920v-1080h-1920z"
         id="path13" /></clipPath><clipPath
       id="p"><path
         transform="translate(-1367 -381)"
         d="m0 1080h1920v-1080h-1920z"
         id="path14" /></clipPath><clipPath
       id="n"><path
         transform="translate(-1452 -397)"
         d="m0 1080h1920v-1080h-1920z"
         id="path15" /></clipPath><clipPath
       id="m"><path
         d="m0 1080h1920v-1080h-1920z"
         id="path16" /></clipPath><clipPath
       id="l"><path
         transform="translate(-1563 -409)"
         d="m0 1080h1920v-1080h-1920z"
         id="path17" /></clipPath><clipPath
       id="k"><path
         transform="translate(-1647 -410)"
         d="m0 1080h1920v-1080h-1920z"
         id="path18" /></clipPath><clipPath
       id="j"><path
         transform="translate(-1718 -420)"
         d="m0 1080h1920v-1080h-1920z"
         id="path19" /></clipPath><clipPath
       id="i"><path
         transform="translate(-1781 -422)"
         d="m0 1080h1920v-1080h-1920z"
         id="path20" /></clipPath><clipPath
       id="h"><path
         transform="translate(-514 -605)"
         d="m0 1080h1920v-1080h-1920z"
         id="path21" /></clipPath><clipPath
       id="g"><path
         transform="translate(-196 -460)"
         d="m0 1080h1920v-1080h-1920z"
         id="path22" /></clipPath><clipPath
       id="f"><path
         transform="translate(-304 -445)"
         d="m0 1080h1920v-1080h-1920z"
         id="path23" /></clipPath><clipPath
       id="e"><path
         transform="translate(-513 -439)"
         d="m0 1080h1920v-1080h-1920z"
         id="path24" /></clipPath><clipPath
       id="c"><path
         transform="translate(-411 -460)"
         d="m0 1080h1920v-1080h-1920z"
         id="path25" /></clipPath><style
       type="text/css"
       id="style25">

.str5 {stroke:#1F1A17;stroke-width:76;stroke-linecap:round;stroke-linejoin:round}
.str2 {stroke:#72706F;stroke-width:76;stroke-linecap:round;stroke-linejoin:round}
.str8 {stroke:#C2C1C1;stroke-width:76}
.str9 {stroke:#D82B40;stroke-width:76}
.str6 {stroke:#1F1A17;stroke-width:353;stroke-linecap:round;stroke-linejoin:round}
.str4 {stroke:#72706F;stroke-width:353;stroke-linecap:round;stroke-linejoin:round}
.str1 {stroke:#131516;stroke-width:353;stroke-linecap:round;stroke-linejoin:round}
.str7 {stroke:#1F1A17;stroke-width:353;stroke-linecap:round;stroke-linejoin:round}
.str3 {stroke:#72706F;stroke-width:353;stroke-linecap:round;stroke-linejoin:round}
.str0 {stroke:#131516;stroke-width:353;stroke-linecap:round;stroke-linejoin:round}
.str11 {stroke:#1F1A17;stroke-width:706}
.str10 {stroke:#D82B40;stroke-width:1058}
.fil3 {fill:none}
.fil4 {fill:#FFFFFF}
.fil0 {fill:#9DBDDD}
.fil1 {fill:#EEDDB3}
.fil2 {fill:#F6EAD9}
.fil6 {fill:#D82B40}
.fil5 {fill:#ECECEB}

</style><clipPath
       clipPathUnits="userSpaceOnUse"
       id="clipPath3-2-7-4"><path
         d="M 0,1080 H 1920 V 0 H 0 Z"
         transform="translate(-991.3396,-617.73182)"
         id="path3-4-60-7" /></clipPath><clipPath
       clipPathUnits="userSpaceOnUse"
       id="clipPath5-5-0-7"><path
         d="M 0,1080 H 1920 V 0 H 0 Z"
         transform="translate(-1217.9286,-537.45881)"
         id="path5-5-2-5" /></clipPath><clipPath
       clipPathUnits="userSpaceOnUse"
       id="clipPath7-1-4-4"><path
         d="M 0,1080 H 1920 V 0 H 0 Z"
         transform="translate(-1386.0853,-567.28192)"
         id="path7-7-3-8" /></clipPath><clipPath
       clipPathUnits="userSpaceOnUse"
       id="clipPath9-1-36-12"><path
         d="M 0,1080 H 1920 V 0 H 0 Z"
         transform="translate(-1547.0746,-571.22641)"
         id="path9-1-2-8" /></clipPath><clipPath
       clipPathUnits="userSpaceOnUse"
       id="clipPath11-5-82-9"><path
         d="M 0,1080 H 1920 V 0 H 0 Z"
         transform="translate(-1801.4299,-520.11052)"
         id="path11-2-34-3" /></clipPath><clipPath
       clipPathUnits="userSpaceOnUse"
       id="clipPath13-7-34-6"><path
         d="M 0,1080 H 1920 V 0 H 0 Z"
         transform="translate(-1692.6793,-552.58222)"
         id="path13-6-3-80" /></clipPath><clipPath
       clipPathUnits="userSpaceOnUse"
       id="clipPath15-1-6-2"><path
         d="M 0,1080 H 1920 V 0 H 0 Z"
         transform="translate(-896.38345,-522.74021)"
         id="path15-4-8-1" /></clipPath><clipPath
       clipPathUnits="userSpaceOnUse"
       id="clipPath17-2-4-0"><path
         d="M 0,1080 H 1920 V 0 H 0 Z"
         transform="translate(-1009.0081,-409.47751)"
         id="path17-3-7-5" /></clipPath><clipPath
       clipPathUnits="userSpaceOnUse"
       id="clipPath19-2-3-1"><path
         d="M 0,1080 H 1920 V 0 H 0 Z"
         id="path19-2-9-1" /></clipPath><clipPath
       clipPathUnits="userSpaceOnUse"
       id="clipPath21-1-80-0"><path
         d="M 0,1080 H 1920 V 0 H 0 Z"
         transform="translate(-1091.2527,-411.29711)"
         id="path21-6-0-8" /></clipPath><clipPath
       clipPathUnits="userSpaceOnUse"
       id="clipPath23-8-88-5"><path
         d="M 0,1080 H 1920 V 0 H 0 Z"
         transform="translate(-1172.7414,-372.89021)"
         id="path23-5-0-0" /></clipPath><clipPath
       clipPathUnits="userSpaceOnUse"
       id="clipPath25-7-5-6"><path
         d="M 0,1080 H 1920 V 0 H 0 Z"
         transform="translate(-1253.5758,-420.05551)"
         id="path25-6-1-4" /></clipPath><clipPath
       clipPathUnits="userSpaceOnUse"
       id="clipPath27-1-4-6"><path
         d="M 0,1080 H 1920 V 0 H 0 Z"
         id="path27-8-36-2" /></clipPath><clipPath
       clipPathUnits="userSpaceOnUse"
       id="clipPath29-9-3-5"><path
         d="M 0,1080 H 1920 V 0 H 0 Z"
         transform="translate(-1367.4318,-381.12721)"
         id="path29-2-9-8" /></clipPath><clipPath
       clipPathUnits="userSpaceOnUse"
       id="clipPath31-7-2-62"><path
         d="M 0,1080 H 1920 V 0 H 0 Z"
         transform="translate(-1451.7024,-396.77551)"
         id="path31-9-1-8" /></clipPath><clipPath
       clipPathUnits="userSpaceOnUse"
       id="clipPath33-5-98-4"><path
         d="M 0,1080 H 1920 V 0 H 0 Z"
         id="path33-4-23-7" /></clipPath><clipPath
       clipPathUnits="userSpaceOnUse"
       id="clipPath35-3-4-2"><path
         d="M 0,1080 H 1920 V 0 H 0 Z"
         transform="translate(-1562.787,-409.47751)"
         id="path35-1-0-4" /></clipPath><clipPath
       clipPathUnits="userSpaceOnUse"
       id="clipPath37-2-2-0"><path
         d="M 0,1080 H 1920 V 0 H 0 Z"
         transform="translate(-1646.6692,-409.79941)"
         id="path37-3-3-6" /></clipPath><clipPath
       clipPathUnits="userSpaceOnUse"
       id="clipPath39-3-19-2"><path
         d="M 0,1080 H 1920 V 0 H 0 Z"
         transform="translate(-1718.3602,-420.05551)"
         id="path39-4-8-9" /></clipPath><clipPath
       clipPathUnits="userSpaceOnUse"
       id="clipPath41-1-98-9"><path
         d="M 0,1080 H 1920 V 0 H 0 Z"
         transform="translate(-1781.4783,-421.78061)"
         id="path41-1-9-08" /></clipPath><clipPath
       clipPathUnits="userSpaceOnUse"
       id="clipPath43-3-1-1"><path
         d="M 0,1080 H 1920 V 0 H 0 Z"
         transform="translate(-513.74611,-605.24902)"
         id="path43-8-3-3" /></clipPath><clipPath
       clipPathUnits="userSpaceOnUse"
       id="clipPath45-7-5-1"><path
         d="M 0,1080 H 1920 V 0 H 0 Z"
         transform="translate(-196.42431,-460.01921)"
         id="path45-4-14-1" /></clipPath><clipPath
       clipPathUnits="userSpaceOnUse"
       id="clipPath47-2-2-03"><path
         d="M 0,1080 H 1920 V 0 H 0 Z"
         transform="translate(-303.79271,-444.93961)"
         id="path47-7-53-4" /></clipPath><clipPath
       clipPathUnits="userSpaceOnUse"
       id="clipPath49-7-8-0"><path
         d="M 0,1080 H 1920 V 0 H 0 Z"
         transform="translate(-513.42181,-438.80501)"
         id="path49-9-9-3" /></clipPath><clipPath
       clipPathUnits="userSpaceOnUse"
       id="clipPath51-3-2-9"><path
         d="M 0,1080 H 1920 V 0 H 0 Z"
         transform="translate(-411.13401,-460.01921)"
         id="path51-1-8-1" /></clipPath></defs><style
     type="text/css"
     id="style50">
	.st0{fill:#3C0C12;}
</style><style
     id="style51">.st0{fill:#df2626}.st1{fill:#010101}</style><style
     type="text/css"
     id="style52">
	.st0{fill:#3C0C12;}
</style><style
     id="style53">.st0{fill:#df2626}.st1{fill:#010101}</style><style
     type="text/css"
     id="style54">
	.st0{fill:#3C0C12;}
</style><style
     type="text/css"
     id="style55">
	.st0{fill:#3C0C12;}
</style><style
     id="style56">.st0{fill:#df2626}.st1{fill:#010101}</style><path
     id="path97-3"
     d="m 0,0 c 6.69,0 12.929,-1.305 18.559,-3.884 5.782,-2.637 10.874,-6.254 15.146,-10.755 4.234,-4.457 7.613,-9.83 10.027,-15.943 2.414,-6.194 3.636,-12.878 3.636,-19.868 0,-7.021 -1.177,-13.661 -3.488,-19.715 -2.346,-6.058 -5.6,-11.343 -9.691,-15.731 -4.029,-4.355 -8.959,-7.83 -14.665,-10.337 -11.317,-5.009 -26.403,-4.97 -37.546,0.103 -5.755,2.623 -10.787,6.19 -14.957,10.59 -4.181,4.429 -7.518,9.762 -9.913,15.831 -2.41,6.177 -3.632,12.851 -3.632,19.842 0,7.041 1.176,13.691 3.481,19.726 2.383,6.115 5.63,11.499 9.667,16.015 3.852,4.341 8.702,7.826 14.412,10.356 C -13.311,-1.269 -6.932,0 0,0 m 62.919,11.241 -0.004,0.002 C 55.189,19.064 45.896,25.372 35.291,29.993 24.647,34.611 12.963,36.952 0.56,36.952 -12.028,36.952 -23.807,34.611 -34.462,29.99 -45.064,25.368 -54.368,19 -62.109,11.058 -69.824,3.123 -75.927,-6.285 -80.256,-16.926 c -4.268,-10.6 -6.432,-21.927 -6.432,-33.664 0,-11.762 2.175,-23.046 6.47,-33.544 4.317,-10.547 10.428,-19.869 18.154,-27.697 7.704,-7.832 16.928,-14.13 27.413,-18.716 10.568,-4.646 22.225,-7.002 34.651,-7.002 12.395,0 24.117,2.348 34.814,6.97 10.723,4.588 20.091,10.961 27.855,18.941 7.708,7.917 13.841,17.305 18.23,27.903 4.401,10.619 6.629,21.966 6.629,33.728 0,11.765 -2.175,23.056 -6.47,33.569 C 76.722,-5.876 70.619,3.438 62.919,11.241"
     style="fill:#f42f40;fill-opacity:1;fill-rule:nonzero;stroke:none"
     transform="matrix(0.03901558,0,0,-0.03901558,34.222725,3.5248929)"
     clip-path="url(#clipPath3-2-7-4)" /><path
     id="path99-3"
     d="m 0,0 c -5.119,-5.433 -10.871,-10.065 -17.106,-13.778 l -1.177,-0.674 c -6.118,-3.502 -13.356,-5.278 -21.514,-5.278 -6.746,0 -12.97,1.264 -18.514,3.763 -5.584,2.493 -10.53,6.027 -14.692,10.494 -4.2,4.52 -7.556,9.923 -9.966,16.033 -2.41,6.189 -3.632,12.865 -3.632,19.846 0,7.041 1.176,13.691 3.481,19.726 2.38,6.103 5.656,11.463 9.75,15.941 4.015,4.412 8.862,7.934 14.405,10.466 5.448,2.478 11.404,3.734 17.704,3.734 8.604,0 15.842,-1.812 21.518,-5.388 6.455,-4.069 12.531,-9.026 18.067,-14.736 l 2.653,-2.737 c 1.95,-2.013 5.186,-1.993 7.111,0.044 l 19.862,21.01 c 1.792,1.897 1.793,4.863 0.002,6.76 l -2.378,2.52 c -3.753,3.958 -7.859,7.747 -12.202,11.264 -4.571,3.7 -9.607,6.93 -14.95,9.588 -5.354,2.69 -11.381,4.83 -17.923,6.36 -6.429,1.504 -13.648,2.267 -21.458,2.267 -12.24,0 -23.757,-2.35 -34.242,-6.991 -10.417,-4.633 -19.558,-11.01 -27.163,-18.95 -7.594,-7.92 -13.637,-17.311 -17.969,-27.937 -4.268,-10.61 -6.432,-21.936 -6.432,-33.664 0,-11.75 2.175,-23.035 6.466,-33.539 4.283,-10.496 10.326,-19.802 17.957,-27.647 7.579,-7.825 16.709,-14.138 27.141,-18.762 10.466,-4.652 21.987,-7.011 34.242,-7.011 15.62,0 29.067,3.167 39.971,9.416 10.402,5.976 19.8,13.689 27.936,22.925 l 2.337,2.65 c 1.759,1.994 1.616,5.025 -0.322,6.845 L 9.445,2.888 C 7.457,4.755 4.332,4.65 2.474,2.655 Z"
     style="fill:#f42f40;fill-opacity:1;fill-rule:nonzero;stroke:none"
     transform="matrix(0.03901558,0,0,-0.03901558,43.063226,6.6567911)"
     clip-path="url(#clipPath5-5-0-7)" /><path
     id="path101-8"
     d="m 0,0 c 0,-7.021 -1.177,-13.661 -3.489,-19.715 -2.345,-6.056 -5.6,-11.343 -9.686,-15.729 -4.033,-4.355 -8.963,-7.832 -14.669,-10.341 -11.298,-5.013 -26.392,-4.971 -37.553,0.106 -5.752,2.628 -10.784,6.194 -14.95,10.589 -4.173,4.421 -7.511,9.756 -9.913,15.827 -2.41,6.188 -3.633,12.865 -3.633,19.846 0,7.041 1.177,13.691 3.482,19.726 2.379,6.107 5.63,11.491 9.667,16.015 3.852,4.341 8.702,7.826 14.412,10.356 5.653,2.501 12.032,3.77 18.964,3.77 6.689,0 12.929,-1.305 18.559,-3.884 5.785,-2.639 10.878,-6.256 15.146,-10.755 C -9.429,31.356 -6.05,25.983 -3.632,19.87 -1.222,13.672 0,6.987 0,0 M 33.694,34.014 C 29.354,44.578 23.251,53.889 15.551,61.691 l -0.004,0.002 c -7.726,7.821 -17.015,14.127 -27.621,18.75 -10.647,4.618 -22.331,6.959 -34.734,6.959 -12.585,0 -24.363,-2.341 -35.022,-6.962 -10.61,-4.626 -19.91,-10.994 -27.644,-18.93 -7.715,-7.935 -13.822,-17.343 -18.15,-27.986 -4.268,-10.61 -6.433,-21.936 -6.433,-33.664 0,-11.75 2.176,-23.035 6.471,-33.546 4.321,-10.545 10.431,-19.867 18.154,-27.695 7.703,-7.832 16.928,-14.13 27.413,-18.716 10.568,-4.646 22.225,-7.002 34.651,-7.002 12.395,0 24.117,2.348 34.814,6.97 10.723,4.587 20.091,10.961 27.855,18.941 7.711,7.921 13.845,17.308 18.234,27.905 4.4,10.628 6.629,21.974 6.629,33.726 0,11.754 -2.176,23.046 -6.47,33.571"
     style="fill:#f42f40;fill-opacity:1;fill-rule:nonzero;stroke:none"
     transform="matrix(0.03901558,0,0,-0.03901558,49.62396,5.4932252)"
     clip-path="url(#clipPath7-1-4-4)" /><path
     id="path103-0"
     d="m 0,0 c -5.191,3.683 -11.09,6.775 -17.545,9.2 -5.914,2.197 -11.919,4.215 -17.84,5.999 -4.995,1.514 -9.777,3.061 -14.348,4.582 -4.26,1.427 -7.965,2.991 -11.041,4.664 -2.539,1.364 -4.574,2.96 -6.016,4.693 -0.794,0.984 -1.29,2.059 -1.29,4.372 0,3.587 1.434,6.325 4.677,8.892 3.643,2.915 8.997,4.395 15.918,4.395 6.379,0 13.053,-1.169 19.818,-3.468 7.023,-2.414 13.8,-5.696 20.156,-9.769 l 3.166,-2.008 c 2.332,-1.479 5.424,-0.751 6.851,1.613 l 13.958,23.128 c 1.372,2.274 0.693,5.227 -1.536,6.673 L 11.96,64.89 c -8.354,5.415 -17.779,9.813 -28.033,13.081 -18.975,5.993 -38.151,6.502 -54.012,1.436 -7.318,-2.354 -13.766,-5.824 -19.161,-10.311 -5.517,-4.588 -9.864,-10.178 -12.921,-16.624 -3.099,-6.562 -4.609,-13.717 -4.609,-21.873 0,-8.635 1.99,-16.087 5.91,-22.146 3.659,-5.661 8.415,-10.426 14.136,-14.164 5.29,-3.464 11.321,-6.38 17.938,-8.667 5.907,-2.024 11.787,-3.922 18.113,-5.836 4.665,-1.296 9.27,-2.717 13.678,-4.217 4.018,-1.381 7.564,-2.957 10.53,-4.685 2.497,-1.46 4.45,-3.108 5.785,-4.881 0.697,-0.928 1.34,-2.183 1.34,-5.051 0,-4.667 -1.612,-7.927 -5.233,-10.573 -4.302,-3.152 -10.144,-4.751 -17.367,-4.751 -7.9,0 -15.865,1.485 -23.686,4.421 -7.984,2.973 -15.824,7.367 -23.319,13.077 l -3.019,2.276 c -2.218,1.672 -5.379,1.179 -6.983,-1.089 l -15.498,-21.923 c -1.505,-2.129 -1.089,-5.062 0.949,-6.689 l 2.685,-2.143 c 9.251,-7.365 19.978,-13.267 31.878,-17.543 11.956,-4.296 24.011,-6.476 35.831,-6.476 8.411,0 16.372,1.164 23.66,3.457 7.548,2.37 14.196,5.876 19.762,10.42 5.687,4.641 10.261,10.324 13.606,16.908 3.466,6.867 5.15,14.567 5.15,23.538 0,8.318 -1.831,15.591 -5.456,21.641 C 10.174,-8.833 5.596,-3.956 0,0"
     style="fill:#f42f40;fill-opacity:1;fill-rule:nonzero;stroke:none"
     transform="matrix(0.03901558,0,0,-0.03901558,55.905052,5.3393284)"
     clip-path="url(#clipPath9-1-36-12)" /><path
     id="path105-5"
     d="m 0,0 c -4.214,0 -7.662,3.448 -7.662,7.662 v 175.381 c 0,2.718 -2.204,4.922 -4.922,4.922 h -29.737 c -2.719,0 -4.922,-2.204 -4.922,-4.922 V 7.639 c 0,-26.079 21.141,-47.22 47.22,-47.22 h 3.671 c 2.718,0 4.922,2.203 4.922,4.922 V -4.922 C 8.57,-2.204 6.366,0 3.648,0 Z"
     style="fill:#f42f40;fill-opacity:1;fill-rule:nonzero;stroke:none"
     transform="matrix(0.03901558,0,0,-0.03901558,65.828873,7.333645)"
     clip-path="url(#clipPath11-5-82-9)" /><path
     id="path107-6"
     d="m 0,0 c 0,-20.01 -16.946,-36.137 -37.239,-34.773 -18.507,1.245 -32.468,17.469 -32.468,36.018 v 92.733 c 0,2.718 -2.204,4.922 -4.922,4.922 h -29.715 c -2.718,0 -4.922,-2.204 -4.922,-4.922 V 4.276 c 0,-40.224 31.221,-74.525 71.417,-76.039 42.26,-1.591 77.15,32.328 77.15,74.241 v 91.5 c 0,2.718 -2.203,4.922 -4.922,4.922 H 4.922 C 2.204,98.9 0,96.696 0,93.978 Z"
     style="fill:#f42f40;fill-opacity:1;fill-rule:nonzero;stroke:none"
     transform="matrix(0.03901558,0,0,-0.03901558,61.585905,6.0667426)"
     clip-path="url(#clipPath13-7-34-6)" /><path
     id="path109-6"
     d="m 0,0 c -4.196,0 -7.598,3.402 -7.598,7.598 v 47.693 c 0,41.039 -32.39,75.907 -73.426,76.356 -12.561,0.138 -24.693,-2.827 -35.574,-8.626 v 57.381 c 0,2.718 -2.204,4.922 -4.923,4.922 h -29.733 c -2.718,0 -4.922,-2.204 -4.922,-4.922 V 80.657 c -1.143,-2.514 -3.882,-8.504 -5.078,-10.855 L -166.452,59.24 C -177.3,37.016 -188.515,22.362 -202.628,9.056 c -4.435,-3.87 -8.253,-6.659 -12.044,-8.799 -6.114,-3.507 -13.368,-5.286 -21.548,-5.286 -6.667,0 -12.872,1.266 -18.438,3.761 -5.691,2.556 -10.64,6.085 -14.715,10.485 -4.2,4.541 -7.563,9.955 -9.981,16.056 -2.395,6.153 -3.606,12.829 -3.606,19.846 0,7.073 1.165,13.731 3.443,19.745 2.312,5.969 5.596,11.33 9.762,15.937 3.924,4.345 8.767,7.864 14.355,10.441 5.509,2.49 11.491,3.753 17.772,3.753 8.57,0 15.809,-1.812 21.488,-5.365 3.403,-2.162 6.663,-4.544 9.773,-7.114 1.93,-1.596 4.774,-1.406 6.545,0.365 l 20.621,20.623 c 2.033,2.032 1.871,5.333 -0.285,7.234 -1.144,1.008 -2.308,1.999 -3.497,2.966 -4.59,3.717 -9.645,6.952 -15.01,9.605 -5.464,2.732 -11.48,4.869 -17.871,6.353 -6.402,1.5 -13.632,2.26 -21.491,2.26 -12.32,0 -23.834,-2.353 -34.197,-6.982 -10.379,-4.59 -19.528,-10.952 -27.209,-18.926 -7.541,-7.886 -13.576,-17.282 -17.95,-27.962 -4.298,-10.681 -6.477,-21.998 -6.477,-33.637 0,-11.682 2.183,-22.969 6.496,-33.571 4.325,-10.505 10.368,-19.8 17.961,-27.625 7.594,-7.824 16.732,-14.143 27.156,-18.776 10.39,-4.641 21.9,-6.994 34.22,-6.994 13.905,0 26.399,2.752 37.141,8.178 l 1.176,0.475 c 0.583,0.233 1.234,0.528 1.54,0.73 1.779,0.988 3.345,2.117 4.59,3.057 l 0.802,0.568 c 0.348,0.25 0.692,0.503 1.116,0.766 l 1.881,1.201 c 2.05,1.33 4.377,2.838 6.451,4.609 0.465,0.369 0.885,0.764 1.275,1.201 l 0.148,0.133 c 4.347,3.729 7.609,6.875 10.673,10.278 l 3.89,4.862 c 3.753,4.707 7.272,9.781 10.496,15.118 v -42.739 c 0,-2.719 2.204,-4.922 4.922,-4.922 h 29.733 c 2.719,0 4.923,2.203 4.923,4.922 v 98.199 c 1.157,9.572 6.292,18.265 14.173,23.926 7.088,5.204 15.683,7.501 24.516,6.475 17.791,-2.068 30.787,-17.931 30.787,-35.841 V 7.596 c 0,-20.101 12.789,-37.998 31.79,-44.521 4.919,-1.724 10.076,-2.598 15.332,-2.598 h 3.644 c 2.719,0 4.922,2.204 4.922,4.923 V -4.922 C 8.566,-2.204 6.363,0 3.644,0 Z"
     style="fill:#f42f40;fill-opacity:1;fill-rule:nonzero;stroke:none"
     transform="matrix(0.03901558,0,0,-0.03901558,30.517955,7.2310459)"
     clip-path="url(#clipPath15-1-6-2)" /><path
     id="path111-4"
     d="m 0,0 c -1.092,2.719 -2.635,5.074 -4.633,7.072 -1.998,1.998 -4.433,3.569 -7.31,4.713 -2.876,1.144 -6.071,1.718 -9.587,1.718 h -13.101 v -44.257 h 13.101 c 3.516,0 6.711,0.556 9.587,1.676 2.877,1.12 5.312,2.677 7.31,4.675 1.998,1.994 3.541,4.325 4.633,6.988 1.092,2.662 1.638,5.567 1.638,8.709 C 1.638,-5.62 1.092,-2.715 0,0 m 6.033,-19.609 c -1.439,-3.437 -3.475,-6.407 -6.113,-8.909 -2.635,-2.506 -5.781,-4.476 -9.427,-5.914 -3.65,-1.438 -7.656,-2.155 -12.023,-2.155 h -19.414 v 55.92 h 19.414 c 4.367,0 8.373,-0.703 12.023,-2.117 3.646,-1.41 6.792,-3.366 9.427,-5.872 2.638,-2.502 4.674,-5.458 6.113,-8.867 1.438,-3.408 2.155,-7.082 2.155,-11.022 0,-3.944 -0.717,-7.632 -2.155,-11.064"
     style="fill:#f9a919;fill-opacity:1;fill-rule:nonzero;stroke:none"
     transform="matrix(0.03901558,0,0,-0.03901558,34.912072,11.572541)"
     clip-path="url(#clipPath17-2-4-0)" /><path
     id="path113-0"
     d="m 1053.388,372.89 h -6.313 v 55.92 h 6.313 z"
     style="fill:#f9a919;fill-opacity:1;fill-rule:nonzero;stroke:none"
     transform="matrix(0.03901558,0,0,-0.03901558,-4.4549689,27.548546)"
     clip-path="url(#clipPath19-2-3-1)" /><path
     id="path115-0"
     d="m 0,0 c 0.423,-1.067 1.197,-2.04 2.316,-2.922 1.117,-0.878 2.663,-1.679 4.633,-2.4 1.97,-0.721 4.5,-1.4 7.59,-2.04 6.232,-1.386 10.823,-3.307 13.78,-5.76 2.957,-2.453 4.433,-5.84 4.433,-10.162 0,-2.4 -0.472,-4.587 -1.42,-6.56 -0.945,-1.974 -2.25,-3.654 -3.916,-5.043 -1.662,-1.385 -3.664,-2.453 -6.008,-3.198 -2.345,-0.745 -4.899,-1.12 -7.67,-1.12 -4.472,0 -8.559,0.721 -12.261,2.166 -3.702,1.442 -7.23,3.678 -10.585,6.701 l 3.915,4.633 c 2.926,-2.663 5.882,-4.647 8.867,-5.952 2.981,-1.305 6.418,-1.956 10.305,-1.956 3.779,0 6.803,0.878 9.067,2.638 2.263,1.76 3.397,4.08 3.397,6.964 0,1.333 -0.213,2.519 -0.64,3.558 -0.427,1.04 -1.176,1.988 -2.247,2.842 -1.067,0.853 -2.547,1.627 -4.44,2.32 -1.897,0.692 -4.314,1.361 -7.25,2.001 -3.202,0.693 -5.991,1.491 -8.367,2.401 -2.376,0.906 -4.339,1.998 -5.889,3.278 -1.547,1.281 -2.694,2.775 -3.44,4.483 -0.748,1.707 -1.123,3.733 -1.123,6.081 0,2.236 0.452,4.29 1.358,6.159 0.906,1.868 2.183,3.482 3.835,4.839 1.651,1.361 3.597,2.429 5.833,3.202 2.236,0.773 4.685,1.162 7.348,1.162 4.101,0 7.684,-0.567 10.746,-1.694 3.062,-1.13 6.033,-2.827 8.909,-5.098 L 27.398,6.652 c -2.606,2.127 -5.231,3.674 -7.866,4.633 -2.638,0.959 -5.392,1.438 -8.268,1.438 -1.813,0 -3.45,-0.241 -4.913,-0.721 C 4.885,11.519 3.632,10.879 2.596,10.081 1.557,9.28 0.756,8.321 0.199,7.201 -0.36,6.078 -0.64,4.881 -0.64,3.601 -0.64,2.267 -0.427,1.064 0,0"
     style="fill:#f9a919;fill-opacity:1;fill-rule:nonzero;stroke:none"
     transform="matrix(0.03901558,0,0,-0.03901558,38.120894,11.501548)"
     clip-path="url(#clipPath21-1-80-0)" /><path
     id="path117-4"
     d="M 0,0 H -6.312 V 50.091 H -25.086 V 55.92 H 18.773 V 50.091 H 0 Z"
     style="fill:#f9a919;fill-opacity:1;fill-rule:nonzero;stroke:none"
     transform="matrix(0.03901558,0,0,-0.03901558,41.300221,13.000016)"
     clip-path="url(#clipPath23-8-88-5)" /><path
     id="path119-6"
     d="m 0,0 c -2.509,1.949 -6.032,2.925 -10.571,2.925 h -17.3 v -22.769 h 17.22 c 2.082,0 4.003,0.266 5.766,0.801 1.76,0.536 3.282,1.299 4.567,2.285 1.28,0.991 2.281,2.205 3.002,3.65 0.721,1.442 1.081,3.072 1.081,4.888 C 3.765,-4.692 2.509,-1.953 0,0 m 4.325,-47.165 -16.219,21.73 h -15.977 v -21.73 h -6.312 v 55.92 h 24.046 c 3.09,0 5.872,-0.399 8.349,-1.197 C 0.689,6.757 2.806,5.627 4.563,4.16 6.32,2.694 7.681,0.938 8.636,-1.116 c 0.959,-2.051 1.438,-4.329 1.438,-6.834 0,-2.345 -0.371,-4.434 -1.116,-6.274 -0.749,-1.837 -1.799,-3.436 -3.156,-4.794 -1.358,-1.361 -2.971,-2.491 -4.833,-3.398 -1.865,-0.906 -3.887,-1.546 -6.071,-1.917 l 17.174,-22.832 z"
     style="fill:#f9a919;fill-opacity:1;fill-rule:nonzero;stroke:none"
     transform="matrix(0.03901558,0,0,-0.03901558,44.454022,11.159834)"
     clip-path="url(#clipPath25-7-5-6)" /><path
     id="path121-2"
     d="m 1299.999,372.89 h -6.312 v 55.92 h 6.312 z"
     style="fill:#f9a919;fill-opacity:1;fill-rule:nonzero;stroke:none"
     transform="matrix(0.03901558,0,0,-0.03901558,-4.4549689,27.548546)"
     clip-path="url(#clipPath27-1-4-6)" /><path
     id="path125-6"
     d="m 0,0 c 2.446,1.767 3.667,4.251 3.667,7.464 0,3.1 -1.249,5.493 -3.744,7.177 -2.498,1.683 -6.19,2.526 -11.078,2.526 H -28.767 V -2.645 h 18.728 C -5.791,-2.645 -2.442,-1.764 0,0 m -3.034,25.327 c 2.39,1.711 3.587,4.224 3.587,7.541 0,2.834 -1.064,5.081 -3.188,6.739 -2.124,1.655 -5.179,2.485 -9.161,2.485 H -28.767 V 22.759 h 16.492 c 3.772,0 6.851,0.857 9.241,2.568 m -0.787,21.359 c 2.232,-0.665 4.143,-1.599 5.739,-2.796 1.595,-1.197 2.816,-2.663 3.67,-4.395 0.85,-1.728 1.274,-3.66 1.274,-5.791 C 6.862,31.839 6.61,30.215 6.106,28.83 5.602,27.444 4.923,26.223 4.073,25.156 3.223,24.092 2.281,23.199 1.246,22.479 0.21,21.761 -0.868,21.163 -1.984,20.684 -0.336,20.204 1.218,19.578 2.68,18.805 4.143,18.031 5.406,17.114 6.47,16.051 7.534,14.983 8.384,13.706 9.021,12.216 9.658,10.721 9.98,9.017 9.98,7.1 9.98,4.706 9.5,2.547 8.545,0.63 7.586,-1.288 6.218,-2.897 4.437,-4.203 2.656,-5.508 0.514,-6.508 -1.984,-7.198 -4.482,-7.891 -7.247,-8.237 -10.277,-8.237 h -24.802 v 55.92 h 23.763 c 2.764,0 5.262,-0.332 7.495,-0.997"
     style="fill:#f9a919;fill-opacity:1;fill-rule:nonzero;stroke:none"
     transform="matrix(0.03901558,0,0,-0.03901558,48.896183,12.678644)"
     clip-path="url(#clipPath29-9-3-5)" /><path
     id="path127-7"
     d="m 0,0 c 0,-4.101 -0.556,-7.695 -1.676,-10.784 -1.12,-3.09 -2.705,-5.673 -4.752,-7.748 -2.054,-2.078 -4.504,-3.635 -7.352,-4.675 -2.848,-1.039 -6.032,-1.557 -9.546,-1.557 -3.464,0 -6.62,0.518 -9.468,1.557 -2.849,1.04 -5.298,2.583 -7.349,4.633 -2.05,2.051 -3.635,4.595 -4.751,7.632 -1.12,3.034 -1.68,6.523 -1.68,10.463 v 32.514 h 6.313 V -0.077 c 0,-6.075 1.504,-10.735 4.513,-13.983 3.006,-3.247 7.202,-4.871 12.58,-4.871 5.168,0 9.269,1.544 12.303,4.633 3.037,3.087 4.556,7.695 4.556,13.819 V 32.035 H 0 Z"
     style="fill:#f9a919;fill-opacity:1;fill-rule:nonzero;stroke:none"
     transform="matrix(0.03901558,0,0,-0.03901558,52.184051,12.068117)"
     clip-path="url(#clipPath31-7-2-62)" /><path
     id="path129-5"
     d="m 1489.493,372.89 h -6.312 v 55.92 h 6.312 z"
     style="fill:#f9a919;fill-opacity:1;fill-rule:nonzero;stroke:none"
     transform="matrix(0.03901558,0,0,-0.03901558,-4.4549689,27.548546)"
     clip-path="url(#clipPath33-5-98-4)" /><path
     id="path131-6"
     d="m 0,0 c -1.092,2.719 -2.635,5.074 -4.633,7.072 -1.998,1.998 -4.433,3.569 -7.31,4.713 -2.876,1.144 -6.071,1.718 -9.587,1.718 h -13.101 v -44.257 h 13.101 c 3.516,0 6.711,0.556 9.587,1.676 2.877,1.12 5.312,2.677 7.31,4.675 1.998,1.994 3.541,4.325 4.633,6.988 1.092,2.662 1.638,5.567 1.638,8.709 C 1.638,-5.62 1.092,-2.715 0,0 m 6.033,-19.609 c -1.439,-3.437 -3.475,-6.407 -6.113,-8.909 -2.635,-2.506 -5.781,-4.476 -9.427,-5.914 -3.65,-1.438 -7.656,-2.155 -12.023,-2.155 h -19.414 v 55.92 h 19.414 c 4.367,0 8.373,-0.703 12.023,-2.117 3.646,-1.41 6.792,-3.366 9.427,-5.872 2.638,-2.502 4.674,-5.458 6.113,-8.867 1.438,-3.408 2.155,-7.082 2.155,-11.022 0,-3.944 -0.717,-7.632 -2.155,-11.064"
     style="fill:#f9a919;fill-opacity:1;fill-rule:nonzero;stroke:none"
     transform="matrix(0.03901558,0,0,-0.03901558,56.518081,11.572541)"
     clip-path="url(#clipPath35-3-4-2)" /><path
     id="path132-9"
     d="m 0,0 c -1.092,2.82 -2.621,5.273 -4.591,7.348 -1.973,2.079 -4.304,3.727 -6.991,4.955 -2.691,1.225 -5.634,1.837 -8.829,1.837 -3.194,0 -6.137,-0.598 -8.828,-1.798 -2.687,-1.197 -4.99,-2.835 -6.907,-4.913 -1.918,-2.079 -3.426,-4.514 -4.514,-7.31 -1.096,-2.796 -1.638,-5.791 -1.638,-8.986 0,-3.198 0.542,-6.207 1.638,-9.028 1.088,-2.824 2.62,-5.273 4.591,-7.352 1.97,-2.075 4.3,-3.726 6.991,-4.951 2.687,-1.228 5.634,-1.837 8.828,-1.837 3.195,0 6.138,0.598 8.829,1.795 2.687,1.2 4.993,2.838 6.911,4.913 1.914,2.078 3.418,4.514 4.51,7.31 1.092,2.799 1.638,5.794 1.638,8.989 C 1.638,-5.833 1.092,-2.824 0,0 m 6.113,-19.931 c -1.386,-3.492 -3.328,-6.568 -5.833,-9.228 -2.502,-2.666 -5.511,-4.783 -9.028,-6.351 -3.513,-1.571 -7.401,-2.358 -11.663,-2.358 -4.262,0 -8.135,0.773 -11.624,2.316 -3.489,1.544 -6.484,3.636 -8.986,6.271 -2.505,2.638 -4.433,5.7 -5.791,9.189 -1.358,3.488 -2.04,7.177 -2.04,11.064 0,3.888 0.693,7.576 2.079,11.064 1.385,3.489 3.327,6.565 5.833,9.228 2.502,2.663 5.511,4.78 9.028,6.351 3.513,1.571 7.4,2.355 11.662,2.355 4.259,0 8.136,-0.77 11.625,-2.317 3.485,-1.543 6.484,-3.632 8.985,-6.27 2.502,-2.635 4.434,-5.7 5.791,-9.186 1.362,-3.488 2.041,-7.18 2.041,-11.064 0,-3.891 -0.693,-7.579 -2.079,-11.064"
     style="fill:#f9a919;fill-opacity:1;fill-rule:nonzero;stroke:none"
     transform="matrix(0.03901558,0,0,-0.03901558,59.790793,11.559981)"
     clip-path="url(#clipPath37-2-2-0)" /><path
     id="path134-8"
     d="m 0,0 c -2.509,1.949 -6.033,2.925 -10.571,2.925 h -17.3 v -22.769 h 17.22 c 2.082,0 4.003,0.266 5.766,0.801 1.76,0.536 3.282,1.299 4.567,2.285 1.28,0.991 2.281,2.205 3.002,3.65 0.721,1.442 1.081,3.072 1.081,4.888 C 3.765,-4.692 2.509,-1.953 0,0 m 4.325,-47.165 -16.219,21.73 h -15.977 v -21.73 h -6.312 v 55.92 h 24.046 c 3.09,0 5.871,-0.399 8.349,-1.197 C 0.689,6.757 2.806,5.627 4.563,4.16 6.319,2.694 7.681,0.938 8.636,-1.116 c 0.959,-2.051 1.438,-4.329 1.438,-6.834 0,-2.345 -0.371,-4.434 -1.116,-6.274 -0.749,-1.837 -1.799,-3.436 -3.156,-4.794 -1.358,-1.361 -2.971,-2.491 -4.833,-3.398 -1.865,-0.906 -3.887,-1.546 -6.071,-1.917 l 17.174,-22.832 z"
     style="fill:#f9a919;fill-opacity:1;fill-rule:nonzero;stroke:none"
     transform="matrix(0.03901558,0,0,-0.03901558,62.58786,11.159834)"
     clip-path="url(#clipPath39-3-19-2)" /><path
     id="path136-7"
     d="M 0,0 -12.782,-28.518 H 12.702 Z M 28.522,-48.89 H 21.73 l -6.551,14.78 h -30.435 l -6.631,-14.78 h -6.474 L -2.876,7.432 h 5.913 z"
     style="fill:#f9a919;fill-opacity:1;fill-rule:nonzero;stroke:none"
     transform="matrix(0.03901558,0,0,-0.03901558,65.05045,11.092528)"
     clip-path="url(#clipPath41-1-98-9)" /><path
     id="path138-2"
     d="m 0,0 c 0,-27.457 -10.675,-53.265 -30.051,-72.615 l -18.323,-18.377 -37.996,37.997 18.322,18.377 c 9.243,9.242 14.35,21.538 14.35,34.645 0,13.107 -5.107,25.43 -14.35,34.699 -9.296,9.189 -21.619,14.269 -34.699,14.269 -13.134,0 -25.43,-5.08 -34.646,-14.296 l -18.322,-18.349 -54.238,-54.238 -53.077,-53.104 -38.05,38.051 53.103,53.076 54.265,54.238 18.35,18.323 c 19.349,19.376 45.131,30.051 72.615,30.051 27.484,0 53.292,-10.675 72.696,-30.051 C -10.675,53.319 0,27.484 0,0"
     style="fill:#f9a919;fill-opacity:1;fill-rule:nonzero;stroke:none;stroke-width:1.00887"
     transform="matrix(0.03867266,0,0,-0.03867266,15.450684,3.9766546)"
     clip-path="url(#clipPath43-3-1-1)" /><path
     id="path140-8"
     d="m 0,0 -40.51,-40.51 c -10.485,-10.485 -27.511,-10.485 -37.996,0 l -0.027,0.027 c -10.486,10.486 -10.486,27.484 0.027,37.997 l 40.51,40.456 z"
     style="fill:#f9a919;fill-opacity:1;fill-rule:nonzero;stroke:none;stroke-width:1.00887"
     transform="matrix(0.03867266,0,0,-0.03867266,3.1790035,9.5930787)"
     clip-path="url(#clipPath45-7-5-1)" /><path
     id="path142-2"
     d="m 0,0 -38.023,-38.023 -53.104,53.103 -54.238,54.238 -18.377,18.377 c -19.376,19.376 -30.051,45.157 -30.051,72.614 0,27.484 10.675,53.32 30.051,72.696 9.675,9.675 20.89,17.188 33.322,22.322 12.404,5.189 25.646,7.811 39.374,7.811 27.43,0 53.266,-10.702 72.696,-30.133 l 18.323,-18.322 -37.996,-37.997 -18.323,18.35 c -9.324,9.242 -21.647,14.323 -34.7,14.323 -13.079,0 -25.376,-5.081 -34.645,-14.35 -9.242,-9.243 -14.35,-21.566 -14.35,-34.7 0,-13.161 5.108,-25.457 14.35,-34.618 l 18.323,-18.323 54.319,-54.319 z"
     style="fill:#f42f40;fill-opacity:1;fill-rule:nonzero;stroke:none;stroke-width:1.00887"
     transform="matrix(0.03867266,0,0,-0.03867266,7.3312255,10.176247)"
     clip-path="url(#clipPath47-2-2-03)" /><path
     id="path152-9"
     d="m 0,0 c 0,-6.864 -2.621,-13.728 -7.864,-18.971 -10.486,-10.486 -27.484,-10.513 -37.997,0 l -147.499,147.5 37.969,38.023 53.13,-53.13 L -48.05,59.184 -7.864,18.998 C -2.621,13.756 0,6.891 0,0"
     style="fill:#f42f40;fill-opacity:1;fill-rule:nonzero;stroke:none;stroke-width:1.00887"
     transform="matrix(0.03867266,0,0,-0.03867266,15.438142,10.413488)"
     clip-path="url(#clipPath49-7-8-0)" /><path
     id="path154-9"
     d="m 0,0 -80.263,-80.236 c -10.485,-10.485 -27.511,-10.485 -37.996,0.027 l -15.62,15.621 -3.378,3.378 46.157,46.13 53.104,53.076 z"
     style="fill:#f9a919;fill-opacity:1;fill-rule:nonzero;stroke:none;stroke-width:1.00887"
     transform="matrix(0.03867266,0,0,-0.03867266,11.4824,9.5930787)"
     clip-path="url(#clipPath51-3-2-9)" /></svg>
