<?xml version="1.0" encoding="UTF-8" standalone="no"?>
<svg
   width="50"
   height="62"
   version="1.1"
   viewBox="0 0 13 16"
   xml:space="preserve"
   id="svg10"
   sodipodi:docname="icone_celular.svg"
   inkscape:version="1.4.4 (dcaf3e7d9e, 2026-05-05)"
   xmlns:inkscape="http://www.inkscape.org/namespaces/inkscape"
   xmlns:sodipodi="http://sodipodi.sourceforge.net/DTD/sodipodi-0.dtd"
   xmlns="http://www.w3.org/2000/svg"
   xmlns:svg="http://www.w3.org/2000/svg"><sodipodi:namedview
     id="namedview10"
     pagecolor="#ffffff"
     bordercolor="#000000"
     borderopacity="0.25"
     inkscape:showpageshadow="2"
     inkscape:pageopacity="0.0"
     inkscape:pagecheckerboard="0"
     inkscape:deskcolor="#d1d1d1"
     inkscape:zoom="5.6568545"
     inkscape:cx="54.270443"
     inkscape:cy="27.400387"
     inkscape:window-width="1536"
     inkscape:window-height="836"
     inkscape:window-x="0"
     inkscape:window-y="0"
     inkscape:window-maximized="1"
     inkscape:current-layer="svg10" /><defs
     id="defs2"><style
       id="style1">
      .cls-1 {
        fill: #f9a819;
        fill-rule: evenodd;
      }
    </style><style
       type="text/css"
       id="style2">

.str5 {stroke:#1F1A17;stroke-width:76;stroke-linecap:round;stroke-linejoin:round}
.str2 {stroke:#72706F;stroke-width:76;stroke-linecap:round;stroke-linejoin:round}
.str8 {stroke:#C2C1C1;stroke-width:76}
.str9 {stroke:#D82B40;stroke-width:76}
.str6 {stroke:#1F1A17;stroke-width:353;stroke-linecap:round;stroke-linejoin:round}
.str4 {stroke:#72706F;stroke-width:353;stroke-linecap:round;stroke-linejoin:round}
.str1 {stroke:#131516;stroke-width:353;stroke-linecap:round;stroke-linejoin:round}
.str7 {stroke:#1F1A17;stroke-width:353;stroke-linecap:round;stroke-linejoin:round}
.str3 {stroke:#72706F;stroke-width:353;stroke-linecap:round;stroke-linejoin:round}
.str0 {stroke:#131516;stroke-width:353;stroke-linecap:round;stroke-linejoin:round}
.str11 {stroke:#1F1A17;stroke-width:706}
.str10 {stroke:#D82B40;stroke-width:1058}
.fil3 {fill:none}
.fil4 {fill:#FFFFFF}
.fil0 {fill:#9DBDDD}
.fil1 {fill:#EEDDB3}
.fil2 {fill:#F6EAD9}
.fil6 {fill:#D82B40}
.fil5 {fill:#ECECEB}

</style></defs><style
     type="text/css"
     id="style4">
	.st0{fill:#3C0C12;}
</style><style
     id="style5">.st0{fill:#df2626}.st1{fill:#010101}</style><style
     type="text/css"
     id="style6">
	.st0{fill:#3C0C12;}
</style><style
     id="style7">.st0{fill:#df2626}.st1{fill:#010101}</style><style
     type="text/css"
     id="style8">
	.st0{fill:#3C0C12;}
</style><style
     type="text/css"
     id="style9">
	.st0{fill:#3C0C12;}
</style><style
     id="style10">.st0{fill:#df2626}.st1{fill:#010101}</style><g
     style="fill:#254ba0;stroke-width:0.34;fill-opacity:1"
     id="g1"
     transform="matrix(0.01911765,0,0,0.01911765,-3.0588228,16.824706)"><path
       d="M 240,-160 V -800 Z M 637,-40 Q 611,-40 588,-50.5 565,-61 548,-80 l -202,-242 45,-46 q 18,-18 44,-22.5 26,-4.5 49,7.5 l 116,58 v -355 h 80 q 66,0 113,47 47,47 47,113 v 320 q 0,66 -47,113 -47,47 -113,47 z M 240,-80 q -33,0 -56.5,-23.5 Q 160,-127 160,-160 v -640 q 0,-33 23.5,-56.5 Q 207,-880 240,-880 h 360 q 33,0 56.5,23.5 23.5,23.5 23.5,56.5 v 120 H 600 V -800 H 240 v 640 h 241 l 67,80 z M 448.5,-691.5 Q 460,-703 460,-720 460,-737 448.5,-748.5 437,-760 420,-760 q -17,0 -28.5,11.5 -11.5,11.5 -11.5,28.5 0,17 11.5,28.5 11.5,11.5 28.5,11.5 17,0 28.5,-11.5 z M 637,-120 h 43 q 33,0 56.5,-23 23.5,-23 23.5,-57 v -320 q 0,-33 -23.5,-56.5 Q 713,-600 680,-600 v 405 l -212,-107 138,168 q 6,7 14,10.5 8,3.5 17,3.5 z"
       id="path1"
       style="stroke-width:0.34;fill:#254ba0;fill-opacity:1" /></g></svg>
